<?xml version="1.0" standalone="no"?>
<!DOCTYPE svg PUBLIC "-//W3C//DTD SVG 20010904//EN"
 "http://www.w3.org/TR/2001/REC-SVG-20010904/DTD/svg10.dtd">
<svg version="1.0" xmlns="http://www.w3.org/2000/svg"
 width="35.000000pt" height="35.000000pt" viewBox="0 0 35.000000 35.000000"
 preserveAspectRatio="xMidYMid meet">
<metadata>
Created by potrace 1.16, written by Peter Selinger 2001-2019
</metadata>
<g transform="translate(0.000000,35.000000) scale(0.006836,-0.006836)"
fill="#000000" stroke="none">
<path d="M233 4081 c-156 -53 -239 -177 -231 -344 6 -135 67 -231 186 -289
l67 -33 2305 0 2305 0 67 33 c73 36 124 87 160 161 19 38 23 62 23 146 0 86
-3 107 -24 150 -33 66 -100 131 -169 163 l-57 27 -2290 2 c-2183 2 -2292 2
-2342 -16z m4621 -184 c56 -31 79 -67 84 -130 5 -65 -12 -104 -65 -144 l-36
-28 -2277 0 -2277 0 -36 28 c-53 40 -70 79 -65 144 5 63 28 99 84 130 l39 23
2255 0 2255 0 39 -23z"/>
<path d="M282 2899 c-109 -18 -204 -90 -251 -189 -22 -47 -26 -68 -26 -150 0
-82 4 -103 26 -150 49 -103 141 -170 260 -190 89 -14 4449 -14 4538 0 119 20
211 87 260 190 22 47 26 68 26 150 0 82 -4 103 -26 150 -49 103 -141 170 -260
190 -80 12 -4469 12 -4547 -1z m4574 -198 c111 -63 111 -219 0 -282 l-41 -24
-2255 0 -2255 0 -41 24 c-133 76 -101 265 50 302 17 4 1037 6 2266 6 l2235 -2
41 -24z"/>
<path d="M217 1686 c-102 -42 -170 -112 -204 -212 -23 -67 -15 -195 17 -259
32 -66 99 -131 168 -163 l57 -27 2305 0 2305 0 57 27 c69 32 136 97 169 163
21 43 24 64 24 150 0 84 -4 108 -23 146 -36 74 -87 125 -160 161 l-67 33
-2295 2 -2295 3 -58 -24z m4656 -189 c53 -40 70 -79 65 -144 -5 -63 -28 -99
-84 -130 l-39 -23 -2255 0 -2255 0 -39 23 c-56 31 -79 67 -84 130 -6 77 21
124 93 161 27 14 255 16 2296 13 l2266 -2 36 -28z"/>
</g>
</svg>
